<?xml version="1.0" encoding="utf-8"?>
<!-- Generator: Adobe Illustrator 22.1.0, SVG Export Plug-In . SVG Version: 6.00 Build 0)  -->
<svg version="1.1" id="Layer_1" xmlns="http://www.w3.org/2000/svg" xmlns:xlink="http://www.w3.org/1999/xlink" x="0px" y="0px"
	 viewBox="0 0 288 288" style="enable-background:new 0 0 288 288;" xml:space="preserve">
<style type="text/css">
	.st0{fill:none;stroke:#AAAAAA;stroke-width:2;stroke-miterlimit:10;}
	.st1{fill:#61C8D1;}
	.st2{fill:#AAAAAA;}
</style>
<circle class="st0" cx="146.4" cy="149.8" r="105.3"/>
<g>
	<polygon class="st1" points="176.4,117.9 176.4,93.5 101.4,93.5 101.4,191 107.1,191 107.1,99.1 157.7,99.1 	"/>
	<path class="st2" d="M190.9,202.8L168,180c3.2-3.9,5.3-8.8,5.3-14.3c0-12.2-9.9-22.1-22.1-22.1s-22.1,9.9-22.1,22.1
		s9.9,22.1,22.1,22.1c5.4,0,10.5-2.1,14.3-5.3l22.9,22.9c0.4,0.4,0.9,0.6,1.3,0.6s0.9-0.2,1.3-0.6
		C191.6,204.7,191.6,203.6,190.9,202.8z M132.6,165.7c0-10.1,8.3-18.4,18.4-18.4c10.1,0,18.4,8.3,18.4,18.4
		c0,10.1-8.3,18.4-18.4,18.4C140.8,184.1,132.6,175.8,132.6,165.7z"/>
	<path class="st1" d="M161.4,168.5h-20.6c-1.1,0-1.9,0.8-1.9,1.9c0,1.1,0.8,1.9,1.9,1.9h20.6c1.1,0,1.9-0.8,1.9-1.9
		C163.3,169.3,162.6,168.5,161.4,168.5z"/>
	<path class="st1" d="M140.8,161h11.3c1.1,0,1.9-0.8,1.9-1.9c0-1.1-0.8-1.9-1.9-1.9h-11.3c-1.1,0-1.9,0.8-1.9,1.9
		C138.9,160.3,139.7,161,140.8,161z"/>
	<path class="st2" d="M151.1,191.6c-14.3,0-25.9-11.6-25.9-25.9c0-14.2,11.6-25.9,25.9-25.9s25.9,11.6,25.9,25.9
		c0,5.1-1.5,9.9-4.1,13.9l12.9,12.9v-60.4l-29.3-29.3h-45.8v97.5h67.1L165,187.5C160.9,190.1,156.2,191.6,151.1,191.6z M153.9,107.2
		c0-0.2,0.2-0.4,0.4-0.2l27.4,27.4c0.2,0.2,0,0.4-0.2,0.4h-27.6V107.2z"/>
</g>
</svg>
