<svg id="Capa_1" data-name="Capa 1" xmlns="http://www.w3.org/2000/svg" viewBox="0 0 45.51 56.66"><defs><style>.cls-1{fill:#4ed5db;stroke:#4ed5db;stroke-miterlimit:10;stroke-width:0.93px;}.cls-2{fill:#c7c7c7;}</style></defs><title>file2</title><path class="cls-1" d="M52,56.28l-2.51-2.51V21.26L49,20.79l-4.18-4.18V2.13H7.71V50.44h4.64v4.64H48.19l2.52,2.51A.93.93,0,0,0,52,56.28ZM46.34,20.71H35.57V10l9.29,9.29ZM9.56,48.58V4H43V14.75L35.49,7.24,35,6.78H12.35v41.8Zm4.65,4.64V8.64H33.72V22.57H47.65V51.91l-7-7a11,11,0,1,0-1.31,1.31l7,7ZM32.28,47a9.13,9.13,0,1,1,9.13-9.13A9.13,9.13,0,0,1,32.28,47Z" transform="translate(-7.24 -1.67)"/><path class="cls-2" d="M26.63,36h6a1,1,0,0,0,0-2h-6a1,1,0,1,0,0,2Z" transform="translate(-7.24 -1.67)"/><path class="cls-2" d="M38.63,40h-12a1,1,0,1,0,0,2h12a1,1,0,0,0,0-2Z" transform="translate(-7.24 -1.67)"/></svg>