<?xml version="1.0" encoding="utf-8"?>
<!-- Generator: Adobe Illustrator 22.1.0, SVG Export Plug-In . SVG Version: 6.00 Build 0)  -->
<svg version="1.1" id="Layer_1" xmlns="http://www.w3.org/2000/svg" xmlns:xlink="http://www.w3.org/1999/xlink" x="0px" y="0px"
	 viewBox="0 0 288 288" style="enable-background:new 0 0 288 288;" xml:space="preserve">
<style type="text/css">
	.st0{fill:none;stroke:#AAAAAA;stroke-width:2;stroke-miterlimit:10;}
	.st1{fill:#AAAAAA;}
	.st2{fill:#61C8D1;}
	.st3{fill:#FFFFFF;}
</style>
<circle class="st0" cx="144.4" cy="149.9" r="105.3"/>
<g>
	<path class="st1" d="M142.4,133.8h4v4h-4V133.8z"/>
	<path class="st2" d="M200.8,170H88.1v6c0,3.3,2.7,6,6,6h100.6c3.3,0,6-2.7,6-6V170z M192.7,178h-4v-4h4V178z"/>
	<path class="st1" d="M200.8,109.6H88.1V166h112.7L200.8,109.6L200.8,109.6z M134.4,141.8h-10c-1.1,0-2-0.9-2-2v-24.2
		c0-1.1,0.9-2,2-2h24.2c1.1,0,2,0.9,2,2v10h-4v-8.1h-20.1v20.1h8.1V141.8L134.4,141.8z M150.5,131.7v8.1c0,1.1-0.9,2-2,2h-8.1
		c-1.1,0-2-0.9-2-2v-8.1c0-1.1,0.9-2,2-2h8.1C149.6,129.7,150.5,130.7,150.5,131.7z M166.6,155.9c0,1.1-0.9,2-2,2h-24.2
		c-1.1,0-2-0.9-2-2v-10h4v8.1h20.1v-20.1h-8.1v-4h10c1.1,0,2,0.9,2,2V155.9z"/>
	<path class="st1" d="M120.3,204.2c0,1.1,0.9,2,2,2h44.3c1.1,0,2-0.9,2-2c0-1.1-0.9-2-2-2h-44.3
		C121.2,202.2,120.3,203.1,120.3,204.2z"/>
	<path class="st2" d="M200.8,99.5c0-3.3-2.7-6-6-6H94.1c-3.3,0-6,2.7-6,6v6h112.7L200.8,99.5L200.8,99.5z M100.2,101.6h-4v-4h4
		V101.6z M108.2,101.6h-4v-4h4V101.6z M116.3,101.6h-4v-4h4V101.6z"/>
	<path class="st1" d="M132.1,186.1l-1.5,12.1h27.7l-1.5-12.1H132.1z"/>
	<g>
		<path class="st3" d="M189.8,146.4l0.5,0.9c0,0,0,0,0.1,0.1l0,0c0,0,0.1,0.1,0.1,0.1h0c0,0,0.1,0,0.2,0s0.1,0,0.2,0
			c0.1,0,0.1-0.1,0.1-0.1c0,0,0-0.1,0.1-0.1l0.5-0.9L189.8,146.4z"/>
		<path class="st3" d="M190.7,112c-2.4,0-4.3,1.9-4.3,4.3l0,24.4v0v0c0,0,0,0.1,0,0.1v0l0,0l2.7,4.4h3.1l2.7-4.4v0c0,0,0,0,0,0
			c0,0,0-0.1,0-0.1v0l0,0l0-24.4C195,113.9,193.1,112,190.7,112z M194.1,139.4l-0.9-1.2V123c0-0.3-0.2-0.5-0.5-0.5s-0.5,0.2-0.5,0.5
			v15.2l-1.5,1.8l-1.5-1.8V123c0-0.3-0.2-0.5-0.5-0.5s-0.5,0.2-0.5,0.5v15.2l-0.9,1.2v-18.8h6.7L194.1,139.4z M194.1,119.7h-6.7
			v-0.9h6.7V119.7z M194.1,117.7h-6.7v-0.9h6.7V117.7z"/>
	</g>
	<path class="st3" d="M103.8,163.6v-5.3c-1.3,0-2.7,0.3-3.9,0.5c0.2,0.5,0.4,1,0.7,1.4C101.5,162,102.7,163.3,103.8,163.6z"/>
	<path class="st3" d="M108.5,160.2c0.3-0.4,0.5-0.9,0.7-1.4c-1.3-0.3-2.6-0.5-3.9-0.5v5.3C106.3,163.3,107.5,162,108.5,160.2z"/>
	<path class="st3" d="M103.8,156.8v-4.9h-5.4c0.1,1.9,0.4,3.8,0.9,5.5C100.8,157.1,102.3,156.9,103.8,156.8z"/>
	<path class="st3" d="M103.8,150.4v-4.9c-1.5,0-3-0.3-4.4-0.7c-0.5,1.7-0.9,3.6-0.9,5.5H103.8z"/>
	<path class="st3" d="M110.6,143.1c0.9-0.3,1.7-0.7,2.5-1.1c-1.4-1.3-3-2.3-4.9-2.9c0.5,0.6,1.1,1.4,1.6,2.2
		C110.1,141.9,110.4,142.5,110.6,143.1z"/>
	<path class="st3" d="M100.5,142.1c-0.3,0.4-0.5,0.9-0.7,1.4c1.3,0.3,2.6,0.5,3.9,0.5v-5.3C102.7,139.1,101.5,140.3,100.5,142.1z"/>
	<path class="st3" d="M105.2,151.9v4.9c1.5,0,3,0.3,4.4,0.7c0.5-1.7,0.9-3.6,0.9-5.5H105.2L105.2,151.9z"/>
	<path class="st3" d="M105.2,145.5v4.9h5.4c-0.1-1.9-0.4-3.8-0.9-5.5C108.3,145.3,106.8,145.5,105.2,145.5z"/>
	<path class="st3" d="M97.9,157.9c-0.6-1.8-0.9-3.9-1-5.9h-5c0.1,2.8,1.2,5.3,2.9,7.3C95.8,158.7,96.8,158.2,97.9,157.9z"/>
	<path class="st3" d="M110.6,159.3c-0.3,0.6-0.5,1.2-0.8,1.7c-0.5,0.9-1,1.6-1.6,2.2c1.8-0.6,3.5-1.6,4.9-2.9
		C112.4,159.9,111.5,159.6,110.6,159.3z"/>
	<path class="st3" d="M98.4,159.3c-0.9,0.3-1.7,0.7-2.5,1.1c1.4,1.3,3,2.3,4.9,2.9c-0.5-0.6-1.1-1.4-1.6-2.2
		C98.9,160.4,98.6,159.8,98.4,159.3z"/>
	<path class="st3" d="M111.1,144.5c0.6,1.8,0.9,3.9,1,5.9h5c-0.1-2.8-1.2-5.3-2.9-7.3C113.2,143.6,112.2,144.1,111.1,144.5z"/>
	<path class="st3" d="M111.1,157.9c1.1,0.4,2.1,0.8,3.1,1.4c1.7-2,2.8-4.6,2.9-7.3h-5C112,154,111.7,156,111.1,157.9z"/>
	<path class="st3" d="M105.2,138.7v5.3c1.3,0,2.7-0.3,3.9-0.5c-0.2-0.5-0.4-1-0.7-1.4C107.5,140.3,106.3,139.1,105.2,138.7z"/>
	<path class="st3" d="M97.9,144.5c-1.1-0.4-2.1-0.8-3.1-1.4c-1.7,2-2.8,4.6-2.9,7.3h5C97,148.3,97.3,146.3,97.9,144.5z"/>
	<path class="st3" d="M98.4,143.1c0.3-0.6,0.5-1.2,0.8-1.7c0.5-0.9,1-1.6,1.6-2.2c-1.8,0.6-3.5,1.6-4.9,2.9
		C96.7,142.4,97.5,142.8,98.4,143.1z"/>
</g>
</svg>
