<svg id="Layer_1" data-name="Layer 1" xmlns="http://www.w3.org/2000/svg" viewBox="0 0 247.33 242.83"><defs><style>.cls-1{fill:#4ed5db;}.cls-2{fill:#c7c7c7;}</style></defs><title>edit-and-globe</title><path class="cls-1" d="M262.7,278.66H117.82a15.51,15.51,0,0,1-15.49-15.49V128.62a15.5,15.5,0,0,1,15.49-15.49h45.84a5.17,5.17,0,1,0,0-10.33H117.82A25.85,25.85,0,0,0,92,128.62V263.17A25.84,25.84,0,0,0,117.82,289H262.7" transform="translate(-92 -84.37)"/><path class="cls-2" d="M150.91,176.32l75.39-75.39,24.31,24.31-75.39,75.39Z" transform="translate(-92 -84.37)"/><path class="cls-2" d="M138.6,212.94l26.87-7.45-19.42-19.42Z" transform="translate(-92 -84.37)"/><path class="cls-2" d="M257.33,88.15a12.92,12.92,0,0,0-18.25,0l-5.48,5.47,24.32,24.32,5.47-5.48a12.9,12.9,0,0,0,0-18.25Z" transform="translate(-92 -84.37)"/><path class="cls-1" d="M339.16,250.22A72.16,72.16,0,0,0,272,183v-.16h-9.62V183a72.17,72.17,0,0,0-67.2,67.19H195v9.62h.16A72.16,72.16,0,0,0,262.36,327v.17H272V327a72.15,72.15,0,0,0,67.18-67.19h.17v-9.62Zm-99-51.62a76.43,76.43,0,0,0-11.32,22.76H214.45A62.79,62.79,0,0,1,240.18,198.6ZM209.41,231h16.92A114.24,114.24,0,0,0,224,250.22H204.81A62,62,0,0,1,209.41,231Zm-4.6,28.86H224a114.23,114.23,0,0,0,2.37,19.25H209.41A62.07,62.07,0,0,1,204.81,259.84Zm9.64,28.87h14.4a76.32,76.32,0,0,0,11.33,22.76A62.72,62.72,0,0,1,214.45,288.71ZM262.36,317c-9.9-2.64-18.41-13.27-23.58-28.25h23.58Zm0-37.87H236.08a106.49,106.49,0,0,1-2.49-19.25h28.77Zm0-28.87H233.59A106.38,106.38,0,0,1,236.08,231h26.28Zm0-28.86H238.78c5.17-15,13.68-25.61,23.58-28.25Zm57.53,0h-14.4a76.44,76.44,0,0,0-11.33-22.76A63,63,0,0,1,319.89,221.36ZM272,193.11c9.88,2.64,18.41,13.26,23.57,28.25H272ZM272,231h26.27a109.1,109.1,0,0,1,2.5,19.24H272Zm0,28.86h28.77a107.38,107.38,0,0,1-2.5,19.25H272ZM272,317V288.71h23.57C290.39,303.69,281.86,314.32,272,317Zm22.18-5.49a77.16,77.16,0,0,0,11.33-22.76h14.4A62.91,62.91,0,0,1,294.16,311.47Zm30.76-32.38H308a114.23,114.23,0,0,0,2.37-19.25h19.15A61.79,61.79,0,0,1,324.92,279.09Zm-14.55-28.87A114.24,114.24,0,0,0,308,231h16.92a62,62,0,0,1,4.61,19.24Z" transform="translate(-92 -84.37)"/></svg>