<svg id="Layer_1" data-name="Layer 1" xmlns="http://www.w3.org/2000/svg" viewBox="0 0 512 363.28"><defs><style>.cls-1{fill:#4ed5db;}.cls-2{fill:#ffffff;}</style></defs><title>cannon2</title><path class="cls-1" d="M511.6,245.17,475.27,86.77a16,16,0,0,0-25.92-8.61l-33.88,28.75-300.31,43A100.56,100.56,0,0,0,28.41,256.2l-16,3.66A16,16,0,0,0,16,291.44a15.74,15.74,0,0,0,3.58-.41l16-3.67a100.93,100.93,0,0,0,43.65,49.76c.86.48,1.73.95,2.6,1.41,13.27,56.73,64.27,99.11,125,99.11,70.77,0,128.34-57.58,128.34-128.35a128.46,128.46,0,0,0-1.47-19.44L449,253.1l43,11.12a16,16,0,0,0,19.59-19.05ZM206.8,405.67a96.38,96.38,0,1,1,96.37-96.38A96.49,96.49,0,0,1,206.8,405.67ZM324.91,259.08A128.34,128.34,0,0,0,79.05,296.92a68,68,0,0,1-17.16-32h0a68.62,68.62,0,0,1,57.69-83.32l277.21-39.71,20.14,87.87ZM452.53,221a16,16,0,0,0-4.91-.48l-19.19-83.67a15.92,15.92,0,0,0,4.22-2.57L450,119.55l24.56,107.13Z" transform="translate(0 -74.36)"/><path class="cls-2" d="M206.8,249a60.28,60.28,0,1,0,60.28,60.28A60.35,60.35,0,0,0,206.8,249Zm0,88.59a28.31,28.31,0,1,1,28.3-28.31A28.34,28.34,0,0,1,206.8,337.6Z" transform="translate(0 -74.36)"/><circle class="cls-1" cx="206.8" cy="234.94" r="15.2"/></svg>