<?xml version="1.0" encoding="utf-8"?>
<!-- Generator: Adobe Illustrator 22.1.0, SVG Export Plug-In . SVG Version: 6.00 Build 0)  -->
<svg version="1.1" id="Layer_1" xmlns="http://www.w3.org/2000/svg" xmlns:xlink="http://www.w3.org/1999/xlink" x="0px" y="0px"
	 viewBox="0 0 288 288" style="enable-background:new 0 0 288 288;" xml:space="preserve">
<style type="text/css">
	.st0{fill:none;stroke:#ffffff;stroke-width:2;stroke-miterlimit:10;}
	.st1{fill:#ffffff;}
	.st2{fill:#61C8D1;}
</style>
<circle class="st0" cx="145" cy="149.7" r="105.3"/>
<g>
	<path id="XMLID_49_" class="st1" d="M157.3,192.6v3.4c0,2.7-2,4.9-4.5,5.3l-0.8,3c-0.4,1.7-1.9,2.8-3.7,2.8h-8.2
		c-1.7,0-3.2-1.2-3.7-2.8l-0.8-3c-2.6-0.4-4.5-2.6-4.5-5.3v-3.4c0-1.8,1.4-3.2,3.2-3.2h19.7C155.9,189.3,157.3,190.8,157.3,192.6z
		 M172.5,147.4c0,7.6-3,14.5-7.9,19.6c-3.7,3.9-6.1,8.8-6.9,14.1c-0.4,2.3-2.3,3.9-4.6,3.9h-17.5c-2.3,0-4.3-1.7-4.6-3.9
		c-0.8-5.3-3.3-10.3-7-14.1c-4.8-5-7.8-11.8-7.9-19.3c-0.2-15.7,12.3-28.4,28.1-28.6C159.7,119,172.5,131.7,172.5,147.4z
		 M147.4,130.3c0-1.7-1.4-3.2-3.2-3.2c-11.2,0-20.4,9.1-20.4,20.4c0,1.7,1.4,3.2,3.2,3.2c1.7,0,3.2-1.4,3.2-3.2c0-7.7,6.3-14,14-14
		C146,133.5,147.4,132.1,147.4,130.3z"/>
	<path class="st2" d="M110.3,120.3c0.6,0.6,1.4,0.9,2.2,0.9s1.6-0.3,2.2-0.9c1.3-1.3,1.3-3.3,0-4.5l-7.9-7.9c-1.3-1.3-3.3-1.3-4.5,0
		s-1.3,3.3,0,4.5L110.3,120.3z"/>
	<path class="st2" d="M108.4,150.7c0-1.7-1.4-3.2-3.2-3.2H94c-1.7,0-3.2,1.4-3.2,3.2c0,1.7,1.4,3.2,3.2,3.2h11.2
		C106.9,153.9,108.4,152.5,108.4,150.7z"/>
	<path class="st2" d="M115.6,174.8l-7.9,7.9c-1.3,1.3-1.3,3.3,0,4.5c0.6,0.6,1.4,0.9,2.2,0.9c0.8,0,1.6-0.3,2.2-0.9l7.9-7.9
		c1.3-1.3,1.3-3.3,0-4.5C118.8,173.6,116.8,173.6,115.6,174.8z"/>
	<path class="st2" d="M172.6,121.8c0.8,0,1.6-0.3,2.2-0.9l7.9-7.9c1.3-1.3,1.3-3.3,0-4.5c-1.3-1.3-3.3-1.3-4.5,0l-7.9,7.9
		c-1.3,1.3-1.3,3.3,0,4.5C171,121.5,171.8,121.8,172.6,121.8z"/>
	<path class="st2" d="M196,144.2h-11.2c-1.7,0-3.2,1.4-3.2,3.2c0,1.7,1.4,3.2,3.2,3.2H196c1.7,0,3.2-1.4,3.2-3.2
		C199.2,145.6,197.8,144.2,196,144.2z"/>
	<path class="st2" d="M175.3,173.9c-1.3-1.3-3.3-1.3-4.5,0c-1.3,1.3-1.3,3.3,0,4.5l7.9,7.9c0.6,0.6,1.4,0.9,2.2,0.9
		c0.8,0,1.6-0.3,2.2-0.9c1.3-1.3,1.3-3.3,0-4.5L175.3,173.9z"/>
	<path class="st2" d="M144.1,109.9c1.7,0,3.2-1.4,3.2-3.2V95.5c0-1.7-1.4-3.2-3.2-3.2c-1.8,0-3.2,1.4-3.2,3.2v11.2
		C140.9,108.5,142.4,109.9,144.1,109.9z"/>
</g>
</svg>
