<svg id="Layer_1" data-name="Layer 1" fill="#ffffff" xmlns="http://www.w3.org/2000/svg" viewBox="0 0 400.65 512.05"><defs>
<style>
.cls-1{fill:#4ed5db;}
.cls-2{fill:#ffffff;}
</style>
</defs>
<title>lamp2</title>
<path class="cls-1" d="M77.78,170.32A10,10,0,0,0,90.41,164a115.76,115.76,0,0,1,225.65,36.36c0,49.33-22.09,78.8-39.84,102.48-12.92,17.22-24.07,32.1-24.07,50.14v3.53H210.32v-23a10,10,0,0,0-20,0v23H148.54V353c0-18.05-11.15-32.92-24.06-50.15-13.08-17.44-27.89-37.21-35.24-65.3a10,10,0,1,0-19.35,5.06c8.34,31.89,25.11,54.26,38.59,72.24,11.21,15,20.06,26.77,20.06,38.15,0,4.79.21,9.46.6,13.92v85.57a9.89,9.89,0,0,0,.17,1.09h0a74.87,74.87,0,0,0,25,41.7,71.4,71.4,0,0,0,92,0,75,75,0,0,0,25-41.7h0c.07-.36.13-.72.17-1.09V366.86c.4-4.46.61-9.13.61-13.92,0-11.38,8.85-23.19,20.06-38.15C310.65,290.11,336,256.31,336,200.32c0-74.84-60.89-135.73-135.74-135.73a135.5,135.5,0,0,0-128.89,93.1,10,10,0,0,0,6.39,12.62ZM200.32,492C180,492,161.66,479.7,153,461.44h94.71C239,479.7,220.65,492,200.32,492Zm51.24-50.56H149.09V419H251.56Zm0-42.48H149.09V376.47H251.56Z"/>
<path class="cls-2" d="M200.32,46.64a10,10,0,0,0,10-10V10a10,10,0,0,0-20,0V36.64A10,10,0,0,0,200.32,46.64Z"/><path class="cls-2" d="M10,210.32H36.64a10,10,0,0,0,0-20H10a10,10,0,0,0,0,20Z"/>
<path class="cls-2" d="M246.11,220.53a10,10,0,0,0-10-10H164.54a10,10,0,0,0,0,20h25.78v23a10,10,0,0,0,20,0h0v-23h25.79A10,10,0,0,0,246.11,220.53Z"/><path class="cls-2" d="M77.52,91.66A10,10,0,0,0,91.91,77.77l-.25-.25L72.82,58.68A10,10,0,1,0,58.67,72.82Z"/>
<path class="cls-2" d="M58.85,351.8a10,10,0,0,0,7.07-2.93L84.76,330a10,10,0,0,0-14.14-14.14L51.77,334.7a10,10,0,0,0,7.08,17.07Z"/>
<path class="cls-2" d="M316.06,94.59a10,10,0,0,0,7.07-2.93L342,72.82a10,10,0,1,0-14.14-14.15h0L309,77.51a10,10,0,0,0,7.07,17.08Z"/>
<path class="cls-2" d="M315.89,315.89a10,10,0,0,0,0,14.14l18.84,18.84a10,10,0,0,0,14.14-14.14L330,315.89A10,10,0,0,0,315.89,315.89Z"/>
<path class="cls-2" d="M364,210.32h26.65a10,10,0,0,0,0-20H364a10,10,0,0,0,0,20Z"/>
<path class="cls-2" d="M200.32,283.5a10,10,0,1,0,10,10A10,10,0,0,0,200.32,283.5Z"/><path class="cls-2" d="M84.59,200.32a10,10,0,1,0-10,10A10,10,0,0,0,84.59,200.32Z"/>
</svg>