<?xml version="1.0" encoding="utf-8"?>
<!-- Generator: Adobe Illustrator 22.1.0, SVG Export Plug-In . SVG Version: 6.00 Build 0)  -->
<svg version="1.1" id="Layer_1" xmlns="http://www.w3.org/2000/svg" xmlns:xlink="http://www.w3.org/1999/xlink" x="0px" y="0px"
	 viewBox="0 0 288 288" style="enable-background:new 0 0 288 288;" xml:space="preserve">
<style type="text/css">
	.st0{fill:none;stroke:#ffffff;stroke-width:2;stroke-miterlimit:10;}
	.st1{fill:#61C8D1;}
	.st2{fill:#ffffff;}
</style>
<circle class="st0" cx="142.5" cy="150.2" r="105.3"/>
<g>
	<path class="st1" d="M144.2,163c-3.1-2.6-6.9-4.1-10.9-4.6v14.7c0.2,0.1,0.4,0.2,0.6,0.3L144.2,163z"/>
	<path class="st1" d="M129.2,173.2v-14.7c-4,0.4-7.8,2-10.9,4.6l10.3,10.4C128.8,173.3,129,173.2,129.2,173.2z"/>
	<path class="st1" d="M125.7,176.3l-10.4-10.4c-2.6,3.1-4.1,6.9-4.6,10.9h14.7C125.5,176.7,125.6,176.5,125.7,176.3z"/>
	<path class="st2" d="M113.3,137.7l6.9,10.3c0.3-0.1,0.6-0.2,0.9-0.3c0.2-0.1,0.4-0.1,0.6-0.2c0.8-0.2,1.5-0.4,2.3-0.6
		c0.1,0,0.2-0.1,0.3-0.1l-7.5-11.1C115.7,136.3,114.5,137,113.3,137.7z"/>
	<path class="st2" d="M174.4,103.3c-13.2,8.7-26.9,16.6-41.1,23.7c-4.3,2.3-8.6,4.5-12.8,6.8l8.4,12.5c0.8,0,1.5-0.1,2.3-0.1
		c1.1,0,2.2,0.1,3.2,0.2c0.3,0,0.6,0.1,1,0.1c0.8,0.1,1.5,0.2,2.2,0.3c0.4,0.1,0.7,0.2,1.1,0.3c0.7,0.2,1.3,0.3,2,0.5
		c0.4,0.1,0.8,0.3,1.1,0.4c0.5,0.2,1,0.3,1.4,0.5l3.1-2.7c11.8-10.3,24.2-19.9,37.1-28.8c1.8-1.2,3.8-2,5.9-2.2l-10.8-16.1
		C177.7,100.5,176.2,102.1,174.4,103.3z"/>
	<path class="st2" d="M194.4,114.6l1.7-1.1c0.5-0.3,0.8-0.8,0.9-1.3c0.1-0.5,0-1.1-0.3-1.5l-11.5-17.1c-0.3-0.5-0.8-0.8-1.3-0.9
		c-0.5-0.1-1.1,0-1.5,0.3l-1.7,1.1l10.1,15.1L194.4,114.6z"/>
	<path class="st1" d="M125.7,181.6c-0.1-0.2-0.2-0.4-0.2-0.6h-14.7c0.4,4,2,7.8,4.6,10.9L125.7,181.6z"/>
	<path class="st1" d="M136.8,181.6l10.4,10.4c2.6-3.1,4.1-6.9,4.6-10.9H137C136.9,181.2,136.9,181.4,136.8,181.6z"/>
	<path class="st1" d="M118.2,194.9c3.1,2.6,6.9,4.1,10.9,4.6v-14.7c-0.2-0.1-0.4-0.2-0.6-0.3L118.2,194.9z"/>
	<path class="st1" d="M109,197.3c7.6,9.2,20.1,12.8,31.4,9c11.3-3.8,19.1-14.2,19.6-26.1c0.5-11.9-6.5-22.9-17.5-27.6
		c-0.4-0.2-0.8-0.3-1.3-0.5c-0.5-0.2-0.9-0.4-1.4-0.5s-1-0.3-1.4-0.4c-0.5-0.1-0.9-0.3-1.4-0.4c-0.5-0.1-1.1-0.2-1.6-0.3
		c-0.4-0.1-0.8-0.2-1.3-0.2c-1-0.1-2-0.2-3-0.2c-1,0-1.9,0-2.9,0.1c-0.2,0-0.5,0.1-0.7,0.1c-0.7,0.1-1.4,0.2-2.1,0.3
		c-0.2,0-0.4,0.1-0.6,0.1c-0.7,0.2-1.4,0.3-2.2,0.5c-0.1,0-0.3,0.1-0.4,0.1c-0.8,0.3-1.5,0.5-2.3,0.8c-0.1,0-0.1,0.1-0.2,0.1
		c-13.5,5.7-20.5,20.7-16.2,34.7c0.1,0.2,0.1,0.4,0.2,0.6c0.3,0.7,0.5,1.5,0.8,2.2c0,0.1,0,0.1,0.1,0.2c0.7,1.7,1.6,3.2,2.6,4.8
		l0.1,0.2c0.5,0.7,1,1.4,1.5,2.1L109,197.3z M106.6,178.9c0-6.5,2.6-12.8,7.2-17.4c0,0,0,0,0-0.1c0,0,0,0,0.1,0
		c9.6-9.6,25.1-9.6,34.8,0c0,0,0,0,0.1,0c0,0,0,0,0,0.1c9.6,9.6,9.6,25.1,0,34.8c0,0,0,0,0,0.1c0,0,0,0-0.1,0
		c-9.6,9.6-25.1,9.6-34.8,0c0,0,0,0-0.1,0c0,0,0,0,0-0.1C109.1,191.7,106.6,185.5,106.6,178.9z"/>
	<path class="st1" d="M137,176.9h14.7c-0.4-4-2-7.8-4.6-10.9l-10.4,10.4C136.9,176.5,136.9,176.7,137,176.9z"/>
	<path class="st1" d="M133.3,184.7v14.7c4-0.4,7.8-2,10.9-4.6l-10.4-10.4C133.7,184.6,133.5,184.7,133.3,184.7z"/>
	<path class="st2" d="M133.3,178.9c0,1.1-0.9,2.1-2.1,2.1s-2.1-0.9-2.1-2.1s0.9-2.1,2.1-2.1S133.3,177.8,133.3,178.9z"/>
	<path class="st2" d="M101.9,144.2c-0.8-0.9-1.4-1.9-2-2.9c-1.9-3.2-4.5-7.5-9.8-7.5c-1.1,0-2.1,0.9-2.1,2.1c0,1.1,0.9,2.1,2.1,2.1
		c2.8,0,4.3,2.2,6.3,5.5c0.7,1.2,1.4,2.3,2.3,3.3c-0.4,0.3-0.7,0.5-1.1,0.7c-4.2,2.8-6.5,6.2-6.9,9.9c-0.2,3.6,0.9,7.1,3,10
		c1.4,2.1,3.2,3.9,5.3,5.3c0-0.1,0-0.1,0-0.2c0-0.2,0.1-0.3,0.1-0.5c0.2-0.9,0.4-1.8,0.7-2.6c0-0.1,0.1-0.3,0.1-0.4
		c0.3-0.9,0.6-1.8,1-2.7c0,0,0-0.1,0.1-0.2c3-7.1,8.5-13,15.4-16.5l-6.6-9.8c-2.5,1.5-5.1,3.1-7.7,4.7
		C102,144.4,102,144.3,101.9,144.2z"/>
</g>
</svg>
